Shooter*2007*[BluRay][1080p][ENG, POL]

General information:
Country: USA
Release: 8 March 2007
Genre: Action, Crime, Mystery, Thriller 
Director: Antoine Fuqua
Screenplay: Jonathan Lemkin, Stephen Hunter (novel)
Original Music: Mark Mancina
Cinematography by: Peter Menzies Jr., Joel Ransom
Duration: 2h 5mn
Language: English, Polish
Subtitles: English, Polish
Rating: 7.6/10 - 17833 votes

Cast:
Mark Wahlberg  ...  Bob Lee Swagger  
Michael Pena  ...  Nick Memphis  
Danny Glover  ...  Colonel Isaac Johnson  
Kate Mara  ...  Sarah Fenn  
Elias Koteas  ...  Jack Payne  
Rhona Mitra  ...  Alourdes Galindo  
Jonathan Walker  ...  Louis Dobbler  
Justin Louis  ...  Howard Purnell  
Tate Donovan  ...  Russ Turner  
Rade Serbedzija  ...  Michael Sandor (as Rade Sherbedgia)  
Alan C. Peterson  ...  Officer Stanley Timmons  
Ned Beatty  ...  Senator Charles F. Meachum  
Lane Garrison  ...  Donnie Fenn  
Zak Santiago  ...  Senior Agent  
Michael-Ann Connor  ...  Junior Agent 

Plot:
A marksman living in exile is coaxed back into action after learning of a plot to kill the president. Ultimately double-crossed and framed for the attempt, he goes on the run to track the real killer and find out who exactly set him up, and why.

Specifications:
General
Format                           : Matroska
Overall bit rate                 : 8 327 Kbps

Video
Format                           : AVC
Format/Info                      : Advanced Video Codec
Format profile                   : High@L4.0
Format settings, CABAC           : Yes
Format settings, ReFrames        : 3 frames
Muxing mode                      : Container profile=Unknown@4.0
Codec ID                         : V_MPEG4/ISO/AVC
Bit rate                         : 7 469 Kbps
Width                            : 1 920 pixels
Height                           : 1 080 pixels
Display aspect ratio             : 16:9
Frame rate                       : 23.976 fps

Audio 1
Format                           : AC-3
Format/Info                      : Audio Coding 3
Mode extension                   : CM (complete main)
Codec ID                         : A_AC3
Bit rate mode                    : Constant
Bit rate                         : 640 Kbps
Channel(s)                       : 6 channels
Channel positions                : Front: L C R, Side: L R, LFE
Sampling rate                    : 48.0 KHz
Bit depth                        : 16 bits
Stream size                      : 575 MiB (8%)
Title                            : English

Audio 2
Format                           : AC-3
Format/Info                      : Audio Coding 3
Format profile                   : Dolby Digital
Mode extension                   : CM (complete main)
Codec ID                         : A_AC3
Bit rate mode                    : Constant
Bit rate                         : 224 Kbps
Channel(s)                       : 2 channels
Channel positions                : Front: L R
Sampling rate                    : 48.0 KHz
Bit depth                        : 16 bits
Stream size                      : 201 MiB (3%)
Title                            : Polish

Text 1
Format                           : UTF-8
Codec ID                         : S_TEXT/UTF8
Codec ID/Info                    : UTF-8 Plain Text
Title                            : English

Text 2
Format                           : UTF-8
Codec ID                         : S_TEXT/UTF8
Codec ID/Info                    : UTF-8 Plain Text
Title                            : Polish
